<svg width="982" height="1206" viewBox="0 0 982 1206" fill="none" xmlns="http://www.w3.org/2000/svg">
<path d="M982 76.4827C910.59 163.422 745.24 67.3983 495.113 47.6904L777.808 226.697L982 242.598V76.4827Z" fill="#134A57"/>
<path d="M680.131 92.2715C187.302 -79.0526 0.0429688 40.6994 0.0429688 40.6994V1206H981.999V157.333C916.426 186.88 814.599 142.879 680.131 92.2715Z" fill="#1A526B"/>
<path d="M680.131 92.2715C187.302 -79.0526 0.0429688 40.6994 0.0429688 40.6994V1206H981.999V157.333C916.426 186.88 814.599 142.879 680.131 92.2715Z" fill="black" fill-opacity="0.2"/>
<path d="M680.131 92.2715C187.302 -79.0526 0.0429688 40.6994 0.0429688 40.6994V1206H981.999V157.333C916.426 186.88 814.599 142.879 680.131 92.2715Z" fill="black" fill-opacity="0.2"/>
<path d="M182.905 50.4587C211.043 41.4695 240.672 58.206 248.938 88.1163C257.205 118.027 240.884 149.443 212.747 158.432C184.61 167.421 154.981 150.685 146.714 120.775C138.448 90.8643 154.768 59.4479 182.905 50.4587Z" stroke="white" stroke-opacity="0.24" stroke-width="5"/>
<path d="M75.6107 178.275C76.2709 191.232 65.415 202.054 50.9364 202.054C36.4577 202.054 24.4991 191.232 23.8388 178.275C23.2902 167.508 30.6623 158.245 41.5014 155.391C43.7118 154.809 46.0626 154.497 48.5131 154.497C62.9918 154.497 74.9504 165.318 75.6107 178.275Z" stroke="white" stroke-opacity="0.18" stroke-width="5"/>
</svg>
