<svg width="982" height="866" viewBox="0 0 982 866" fill="none" xmlns="http://www.w3.org/2000/svg">
<path d="M981.5 51C910.09 137.939 656.626 58.2079 406.5 38.5L773.694 205.007L981.5 221V51Z" fill="#134A57"/>
<path d="M621 86.8051C128.149 -39.1801 0 9.08198 0 9.08198V866H982V146.398C916.424 168.126 755.474 124.02 621 86.8051Z" fill="#1A526B"/>
<path d="M621 86.8051C128.149 -39.1801 0 9.08198 0 9.08198V866H982V146.398C916.424 168.126 755.474 124.02 621 86.8051Z" fill="black" fill-opacity="0.2"/>
<path d="M621 86.8051C128.149 -39.1801 0 9.08198 0 9.08198V866H982V146.398C916.424 168.126 755.474 124.02 621 86.8051Z" fill="black" fill-opacity="0.2"/>
<path d="M182.905 34.4587C211.043 25.4695 240.672 42.206 248.938 72.1163C257.205 102.027 240.884 133.443 212.747 142.432C184.61 151.421 154.981 134.685 146.714 104.775C138.448 74.8643 154.768 43.4479 182.905 34.4587Z" stroke="white" stroke-opacity="0.24" stroke-width="5"/>
<path d="M75.6107 162.275C76.2709 175.232 65.415 186.054 50.9364 186.054C36.4577 186.054 24.4991 175.232 23.8388 162.275C23.2902 151.508 30.6623 142.245 41.5014 139.391C43.7118 138.809 46.0626 138.497 48.5131 138.497C62.9918 138.497 74.9504 149.318 75.6107 162.275Z" stroke="white" stroke-opacity="0.18" stroke-width="5"/>
</svg>
